{"title":"Indycar 2016 Round 12. Honda Indy 200 Mid Ohio 1080I RUS/ENG","uid":15460893,"size":12109135648,"categoryP":"video","categoryS":"hd___tv_shows","magnet":"?xt=urn:btih:62f02c294860be73a8a3635ad45cd0188ff8c6bd&amp;dn=Indycar+2016+Round+12.+Honda+Indy+200+Mid+Ohio+1080I+RUS%2FENG&amp;tr=udp%3A%2F%2Ftracker.leechers-paradise.org%3A6969&amp;tr=udp%3A%2F%2Fzer0day.ch%3A1337&amp;tr=udp%3A%2F%2Fopen.demonii.com%3A1337&amp;tr=udp%3A%2F%2Ftracker.coppersurfer.tk%3A6969&amp;tr=udp%3A%2F%2Fexodus.desync.com%3A6969","seeders":1,"leechers":0,"uploader":"egor0tech","files":1,"time":1470044925,"description":"Indycar 2016 Round 12. Honda Indy 200 Mid Ohio. Viasat Sport HD 1080I RUS/ENG\r\n\r\nTECHNICAL:\r\nVideo: H264, 1920x1080i, 25 fps, 9 329 Kbps\r\nAudio: 2X MP2 2.0, 48.0 KHz, 192 kb/s (Russian, English)\r\n\r\nMEDIAINFO:\r\nGeneral\r\nID                                       : 17 (0x11)\r\nComplete name                            : K:IndycarINDYCAR_2016_R12_HONDA_INDY_200_MID_OHIO_VIASAT_SPORT_HD.TS\r\nFormat                                   : MPEG-TS\r\nFile size                                : 11.3 GiB\r\nDuration                                 : 2h 37mn\r\nOverall bit rate mode                    : Variable\r\nOverall bit rate                         : 10.2 Mbps\r\n\r\nVideo\r\nID                                       : 306 (0x132)\r\nMenu ID                                  : 17106 (0x42D2)\r\nFormat                                   : AVC\r\nFormat/Info                              : Advanced Video Codec\r\nFormat profile                           :   \r\nFormat settings, CABAC                   : Yes\r\nFormat settings, ReFrames                : 4 frames\r\nCodec ID                                 : 27\r\nDuration                                 : 2h 37mn\r\nBit rate                                 : 9 329 Kbps\r\nWidth                                    : 1 920 pixels\r\nHeight                                   : 1 080 pixels\r\nDisplay aspect ratio                     : 16:9\r\nFrame rate                               : 25.000 fps\r\nStandard                                 : Component\r\nColor space                              : YUV\r\nChroma subsampling                       : 4:2:0\r\nBit depth                                : 8 bits\r\nScan type                                : Interlaced\r\nScan type, store method                  : Separated fields\r\nScan order                               : Top Field First\r\nBits/(Pixel*Frame)                       : 0.180\r\nStream size                              : 10.3 GiB (91%)\r\nColor range                              : Limited\r\nColor primaries                          : BT.709\r\nTransfer characteristics                 : BT.709\r\nMatrix coefficients                      : BT.709\r\n\r\nAudio #1\r\nID                                       : 406 (0x196)\r\nMenu ID                                  : 17106 (0x42D2)\r\nFormat                                   : MPEG Audio\r\nFormat version                           : Version 1\r\nFormat profile                           : Layer 2\r\nCodec ID                                 : 4\r\nDuration                                 : 2h 37mn\r\nBit rate mode                            : Constant\r\nBit rate                                 : 192 Kbps\r\nChannel(s)                               : 2 channels\r\nSampling rate                            : 48.0 KHz\r\nCompression mode                         : Lossy\r\nDelay relative to video                  : 138ms\r\nStream size                              : 217 MiB (2%)\r\nLanguage                                 : Russian\r\nLanguage, more info                      : Clean effects\r\n\r\nAudio #2\r\nID                                       : 416 (0x1A0)\r\nMenu ID                                  : 17106 (0x42D2)\r\nFormat                                   : MPEG Audio\r\nFormat version                           : Version 1\r\nFormat profile                           : Layer 2\r\nCodec ID                                 : 4\r\nDuration                                 : 2h 37mn\r\nBit rate mode                            : Constant\r\nBit rate                                 : 192 Kbps\r\nChannel(s)                               : 2 channels\r\nSampling rate                            : 48.0 KHz\r\nCompression mode                         : Lossy\r\nDelay relative to video                  : 138ms\r\nStream size                              : 217 MiB (2%)\r\nLanguage                                 : English\r\nLanguage, more info                      : Clean effects","torrent":{"xt":"urn:btih:62f02c294860be73a8a3635ad45cd0188ff8c6bd","amp;dn":"Indycar+2016+Round+12.+Honda+Indy+200+Mid+Ohio+1080I+RUS%2FENG","amp;tr":["udp%3A%2F%2Ftracker.leechers-paradise.org%3A6969","udp%3A%2F%2Fzer0day.ch%3A1337","udp%3A%2F%2Fopen.demonii.com%3A1337","udp%3A%2F%2Ftracker.coppersurfer.tk%3A6969","udp%3A%2F%2Fexodus.desync.com%3A6969"],"infoHash":"62f02c294860be73a8a3635ad45cd0188ff8c6bd","infoHashBuffer":{"type":"Buffer","data":[98,240,44,41,72,96,190,115,168,163,99,90,212,92,208,24,143,248,198,189]},"announce":[],"urlList":[]}}